<svg width="21" height="22" viewBox="0 0 21 22" fill="none" xmlns="http://www.w3.org/2000/svg">
<path d="M8.5 1C10.8489 1 12.8528 1.83138 14.5117 3.49413C16.1706 5.15689 17 7.15884 17 9.5C17 11.8412 16.1706 13.8431 14.5117 15.5059C12.8528 17.1686 10.8489 18 8.5 18C6.15105 18 4.14715 17.1686 2.48829 15.5059C0.82943 13.8431 0 11.8412 0 9.5C0 7.15884 0.82943 5.15689 2.48829 3.49413C4.14715 1.83138 6.15105 1 8.5 1ZM1.71194 9.5C1.71194 11.0696 2.1897 12.4664 3.1452 13.6901L12.6604 4.11268C11.4395 3.15493 10.0461 2.67606 8.48009 2.67606C6.62217 2.67606 5.02966 3.34116 3.70258 4.67136C2.37549 6.00156 1.71194 7.61111 1.71194 9.5ZM8.48009 16.3239C10.3646 16.3239 11.9703 15.6588 13.2974 14.3286C14.6245 12.9984 15.2881 11.3889 15.2881 9.5C15.2881 7.93036 14.8103 6.53365 13.8548 5.30986L4.33958 14.8873C5.5605 15.8451 6.94067 16.3239 8.48009 16.3239Z" fill="#C90000"/>
</svg>
