<svg width="48" height="48" viewBox="0 0 48 48" fill="none" xmlns="http://www.w3.org/2000/svg">
<path d="M24 31.5C27.3137 31.5 30 28.8137 30 25.5C30 22.1863 27.3137 19.5 24 19.5C20.6863 19.5 18 22.1863 18 25.5C18 28.8137 20.6863 31.5 24 31.5Z" fill="white"/>
<path d="M42.75 13.5H34.9688C34.6875 13.5 34.3388 13.3181 34.0669 13.0312L31.5094 9.01875C30.4688 7.5 30 7.5 28.3125 7.5H19.6875C18 7.5 17.4375 7.5 16.4934 9.01969L13.9331 13.0312C13.725 13.2581 13.4325 13.5 13.125 13.5V12C13.125 11.8011 13.046 11.6103 12.9053 11.4697C12.7647 11.329 12.5739 11.25 12.375 11.25H8.625C8.42609 11.25 8.23532 11.329 8.09467 11.4697C7.95402 11.6103 7.875 11.8011 7.875 12V13.5H5.25C4.65326 13.5 4.08097 13.7371 3.65901 14.159C3.23705 14.581 3 15.1533 3 15.75V38.25C3 38.8467 3.23705 39.419 3.65901 39.841C4.08097 40.2629 4.65326 40.5 5.25 40.5H42.75C43.3467 40.5 43.919 40.2629 44.341 39.841C44.7629 39.419 45 38.8467 45 38.25V15.75C45 15.1533 44.7629 14.581 44.341 14.159C43.919 13.7371 43.3467 13.5 42.75 13.5ZM24.4228 34.4906C22.6088 34.5758 20.8114 34.1103 19.2669 33.1551C17.7223 32.1999 16.5029 30.7999 15.7687 29.1389C15.0346 27.4778 14.8201 25.6336 15.1535 23.8484C15.4868 22.0633 16.3525 20.4207 17.6366 19.1366C18.9207 17.8525 20.5633 16.9868 22.3484 16.6535C24.1336 16.3201 25.9778 16.5346 27.6389 17.2687C29.2999 18.0029 30.6999 19.2223 31.6551 20.7669C32.6103 22.3114 33.0758 24.1088 32.9906 25.9228C32.8832 28.1605 31.946 30.2779 30.3619 31.8619C28.7779 33.446 26.6605 34.3832 24.4228 34.4906Z" fill="white"/>
</svg>
