<svg width="37" height="37" viewBox="0 0 37 37" fill="none" xmlns="http://www.w3.org/2000/svg">
<path d="M21.2533 26.4131C21.0654 26.283 20.733 26.0879 19.9887 26.0879H11.5986C9.09102 26.0879 6.9375 24.2018 6.9375 21.8098V14.5254H6.80742C4.90684 14.5254 3.46875 16.0068 3.46875 17.8135V27.1285C3.46875 28.9352 5.01523 30.0625 6.91582 30.0625H8.09375V33.5312L11.9311 30.2793C12.0684 30.1781 12.3141 30.0625 12.885 30.0625H19.3744C21.0365 30.0625 22.7998 29.2387 23.125 27.75L21.2533 26.4131Z" fill="#007AAB"/>
<path d="M28.9785 3.46875H13.2752C10.7676 3.46875 9.25 5.40547 9.25 7.79023V19.9453C9.25 22.3373 11.2734 24.2812 13.7811 24.2812H21.0871C21.8387 24.2812 22.1711 24.4475 22.3518 24.5848L27.75 28.9062V24.2812H28.9785C31.4934 24.2812 33.5312 22.3373 33.5312 19.9525V7.79023C33.5312 5.40547 31.4934 3.46875 28.9785 3.46875Z" fill="#007AAB"/>
</svg>

