<svg width="25" height="24" viewBox="0 0 25 24" fill="none" xmlns="http://www.w3.org/2000/svg">
<path d="M12.75 15C14.4069 15 15.75 13.6569 15.75 12C15.75 10.3431 14.4069 9 12.75 9C11.0931 9 9.75 10.3431 9.75 12C9.75 13.6569 11.0931 15 12.75 15Z" fill="#838383"/>
<path d="M23.7581 11.1844C22.5178 9.26625 20.9086 7.63688 19.1048 6.47203C17.1093 5.18203 14.9062 4.5 12.734 4.5C10.7409 4.5 8.78105 5.06953 6.90886 6.19266C4.99965 7.33781 3.26996 9.01078 1.76761 11.1647C1.59801 11.4081 1.50461 11.6965 1.49927 11.9931C1.49392 12.2897 1.57689 12.5813 1.73761 12.8306C2.97558 14.768 4.56886 16.3997 6.34449 17.5486C8.34371 18.8437 10.4953 19.5 12.734 19.5C14.9236 19.5 17.1314 18.8236 19.1184 17.5444C20.9212 16.3833 22.5271 14.7478 23.7628 12.8137C23.918 12.5702 24 12.2872 23.9992 11.9984C23.9983 11.7096 23.9147 11.4271 23.7581 11.1844ZM12.75 16.5C11.8599 16.5 10.9899 16.2361 10.2499 15.7416C9.50987 15.2471 8.93309 14.5443 8.5925 13.7221C8.25191 12.8998 8.16279 11.995 8.33642 11.1221C8.51006 10.2492 8.93864 9.44736 9.56798 8.81802C10.1973 8.18868 10.9991 7.7601 11.8721 7.58647C12.745 7.41283 13.6498 7.50195 14.472 7.84254C15.2943 8.18314 15.9971 8.75991 16.4916 9.49993C16.986 10.24 17.25 11.11 17.25 12C17.2486 13.1931 16.774 14.3369 15.9304 15.1805C15.0868 16.0241 13.943 16.4986 12.75 16.5Z" fill="#838383"/>
</svg>
