<svg width="26" height="27" viewBox="0 0 26 27" fill="none" xmlns="http://www.w3.org/2000/svg">
<path fill-rule="evenodd" clip-rule="evenodd" d="M17.6856 16.6406L23.5139 22.469C23.7188 22.674 23.8338 22.952 23.8337 23.2418C23.8336 23.5316 23.7184 23.8095 23.5134 24.0143C23.3084 24.2192 23.0304 24.3342 22.7406 24.3341C22.4508 24.334 22.1728 24.2188 21.968 24.0138L16.1397 18.1855C14.3973 19.5349 12.2064 20.17 10.0125 19.9614C7.81855 19.7529 5.78649 18.7163 4.32968 17.0627C2.87287 15.4091 2.10073 13.2626 2.17034 11.0599C2.23996 8.85718 3.1461 6.76373 4.70443 5.2054C6.26275 3.64708 8.35621 2.74094 10.5589 2.67132C12.7616 2.60171 14.9081 3.37384 16.5617 4.83065C18.2154 6.28747 19.2519 8.31952 19.4605 10.5134C19.669 12.7073 19.034 14.8983 17.6845 16.6406H17.6856ZM10.8335 17.8334C12.5574 17.8334 14.2107 17.1486 15.4297 15.9296C16.6487 14.7106 17.3335 13.0573 17.3335 11.3334C17.3335 9.60947 16.6487 7.95617 15.4297 6.73719C14.2107 5.5182 12.5574 4.83338 10.8335 4.83338C9.10958 4.83338 7.45628 5.5182 6.2373 6.73719C5.01831 7.95617 4.33349 9.60947 4.33349 11.3334C4.33349 13.0573 5.01831 14.7106 6.2373 15.9296C7.45628 17.1486 9.10958 17.8334 10.8335 17.8334Z" fill="#6B6B6B"/>
</svg>
