<svg width="37" height="37" viewBox="0 0 37 37" fill="none" xmlns="http://www.w3.org/2000/svg">
<path d="M18.5 15.0312C20.4157 15.0312 21.9688 16.5843 21.9688 18.5C21.9688 20.4157 20.4157 21.9688 18.5 21.9688C16.5843 21.9688 15.0312 20.4157 15.0312 18.5C15.0312 16.5843 16.5843 15.0312 18.5 15.0312Z" fill="#007AAB"/>
<path d="M33.9931 15.3203L33.9591 15.3478L31.6784 17.1363C31.534 17.2506 31.4187 17.3975 31.3421 17.565C31.2654 17.7324 31.2296 17.9157 31.2376 18.0996V18.935C31.2303 19.1179 31.2666 19.2998 31.3433 19.4659C31.4201 19.6319 31.5352 19.7774 31.6791 19.8904L33.9591 21.6797L33.9931 21.7071C34.3447 22.0001 34.5807 22.4085 34.6588 22.8594C34.7369 23.3104 34.652 23.7744 34.4194 24.1685L31.333 29.5089C31.3294 29.514 31.3263 29.5193 31.3236 29.5248C31.0897 29.9135 30.7271 30.208 30.2987 30.3572C29.8703 30.5064 29.4032 30.5008 28.9785 30.3414L28.9533 30.3321L26.2722 29.2531C26.103 29.1847 25.9199 29.1575 25.7381 29.1737C25.5563 29.1899 25.381 29.2491 25.2265 29.3463C24.9895 29.4957 24.7486 29.6369 24.5039 29.7698C24.3452 29.8559 24.2089 29.978 24.1061 30.1264C24.0033 30.2748 23.9368 30.4452 23.912 30.624L23.508 33.485L23.4994 33.537C23.4114 33.9802 23.1736 34.3795 22.8259 34.668C22.4783 34.9565 22.0419 35.1165 21.5901 35.1211H15.41C14.9518 35.1196 14.5089 34.9565 14.1593 34.6605C13.8096 34.3646 13.5756 33.9547 13.4985 33.5031L13.492 33.4626L13.0895 30.5958C13.0648 30.4175 12.9988 30.2475 12.8968 30.0992C12.7948 29.9509 12.6596 29.8285 12.502 29.7416C12.2565 29.6094 12.0155 29.4692 11.7793 29.3211C11.6252 29.2244 11.4503 29.1656 11.269 29.1497C11.0877 29.1337 10.9052 29.161 10.7365 29.2293L8.05332 30.3133L8.02802 30.3234C7.60271 30.4829 7.13494 30.4882 6.70609 30.3385C6.27723 30.1888 5.91444 29.8935 5.68084 29.5039L5.67144 29.488L2.58064 24.1439C2.34768 23.7494 2.26265 23.2849 2.34076 22.8334C2.41888 22.382 2.65503 21.973 3.00701 21.6797L3.04097 21.6522L5.32168 19.8637C5.46611 19.7494 5.58137 19.6025 5.658 19.435C5.73463 19.2676 5.77045 19.0843 5.7625 18.9004V18.065C5.76973 17.8821 5.73348 17.7002 5.65672 17.5341C5.57996 17.3681 5.46489 17.2226 5.32095 17.1096L3.04097 15.3203L3.00701 15.2929C2.65538 14.9999 2.41942 14.5915 2.3413 14.1406C2.26319 13.6896 2.34803 13.2256 2.58064 12.8315L5.66711 7.49105C5.67066 7.48602 5.6738 7.4807 5.6765 7.47516C5.91037 7.08648 6.27297 6.792 6.70135 6.64282C7.12973 6.49365 7.59682 6.49922 8.02152 6.65856L8.04681 6.66795L10.7257 7.74688C10.8949 7.8153 11.078 7.84252 11.2598 7.82631C11.4416 7.81011 11.6169 7.75093 11.7714 7.65365C12.0084 7.50382 12.2493 7.36266 12.494 7.23018C12.6527 7.14413 12.789 7.02199 12.8918 6.87362C12.9946 6.72525 13.0611 6.55479 13.0859 6.376L13.4877 3.515L13.4964 3.46297C13.5845 3.01911 13.8229 2.6192 14.1715 2.33065C14.52 2.0421 14.9575 1.88255 15.41 1.87891H21.5901C22.0482 1.88037 22.4911 2.04347 22.8408 2.33946C23.1905 2.63545 23.4244 3.04535 23.5015 3.49693L23.508 3.5374L23.9106 6.40418C23.9356 6.5828 24.0022 6.75307 24.1048 6.90139C24.2074 7.04971 24.3434 7.17196 24.5017 7.25836C24.7488 7.39133 24.9902 7.53225 25.2243 7.67895C25.3785 7.77563 25.5534 7.83435 25.7347 7.85031C25.916 7.86626 26.0985 7.83899 26.2671 7.77072L28.9504 6.69035L28.9757 6.68023C29.4009 6.52043 29.8688 6.51493 30.2977 6.66468C30.7267 6.81444 31.0894 7.10995 31.3228 7.49973C31.3257 7.50518 31.3288 7.51049 31.3322 7.51562L34.4187 12.8553C34.6521 13.2498 34.7374 13.7145 34.6594 14.1661C34.5814 14.6178 34.3452 15.0269 33.9931 15.3203ZM24.2748 18.2283C24.2222 17.1092 23.8455 16.0295 23.1906 15.1205C22.5358 14.2115 21.6309 13.5124 20.586 13.1081C19.5412 12.7038 18.4014 12.6119 17.3053 12.8434C16.2091 13.0749 15.2038 13.6199 14.4117 14.4121C13.6196 15.2044 13.0747 16.2097 12.8433 17.3059C12.6119 18.402 12.704 19.5418 13.1084 20.5866C13.5128 21.6314 14.2121 22.5362 15.1211 23.191C16.0302 23.8457 17.1099 24.2223 18.229 24.2747C19.0325 24.3101 19.8344 24.1779 20.584 23.8866C21.3336 23.5952 22.0143 23.1511 22.5829 22.5824C23.1516 22.0137 23.5956 21.3329 23.8869 20.5833C24.1781 19.8337 24.3102 19.0317 24.2748 18.2283Z" fill="#007AAB"/>
</svg>
