<svg width="263" height="294" viewBox="0 0 263 294" fill="none" xmlns="http://www.w3.org/2000/svg">
<path d="M55.9585 194.25V234.891L72.3079 225.082L123.698 194.25H174.667C186.57 194.25 196.25 184.57 196.25 172.667V86.3333C196.25 74.4301 186.57 64.75 174.667 64.75H45.1668C33.2636 64.75 23.5835 74.4301 23.5835 86.3333V172.667C23.5835 184.57 33.2636 194.25 45.1668 194.25H55.9585ZM45.1668 86.3333H174.667V172.667H117.719L77.5418 196.775V172.667H45.1668V86.3333Z" fill="#6B6B6B" fill-opacity="0.3"/>
<path d="M217.833 21.5835H88.3333C76.4301 21.5835 66.75 31.2636 66.75 43.1668H196.25C208.153 43.1668 217.833 52.847 217.833 64.7502V151.083C229.737 151.083 239.417 141.403 239.417 129.5V43.1668C239.417 31.2636 229.737 21.5835 217.833 21.5835Z" fill="#6B6B6B" fill-opacity="0.3"/>
<path d="M16.8906 278.008C18.5938 278.008 19.9766 277.82 21.0391 277.445C23.0547 276.727 24.0625 275.391 24.0625 273.438C24.0625 272.297 23.5625 271.414 22.5625 270.789C21.5625 270.18 19.9922 269.641 17.8516 269.172L14.1953 268.352C10.6016 267.539 8.11719 266.656 6.74219 265.703C4.41406 264.109 3.25 261.617 3.25 258.227C3.25 255.133 4.375 252.562 6.625 250.516C8.875 248.469 12.1797 247.445 16.5391 247.445C20.1797 247.445 23.2812 248.414 25.8438 250.352C28.4219 252.273 29.7734 255.07 29.8984 258.742H22.9609C22.8359 256.664 21.9297 255.188 20.2422 254.312C19.1172 253.734 17.7188 253.445 16.0469 253.445C14.1875 253.445 12.7031 253.82 11.5938 254.57C10.4844 255.32 9.92969 256.367 9.92969 257.711C9.92969 258.945 10.4766 259.867 11.5703 260.477C12.2734 260.883 13.7734 261.359 16.0703 261.906L22.0234 263.336C24.6328 263.961 26.6016 264.797 27.9297 265.844C29.9922 267.469 31.0234 269.82 31.0234 272.898C31.0234 276.055 29.8125 278.68 27.3906 280.773C24.9844 282.852 21.5781 283.891 17.1719 283.891C12.6719 283.891 9.13281 282.867 6.55469 280.82C3.97656 278.758 2.6875 275.93 2.6875 272.336H9.57812C9.79688 273.914 10.2266 275.094 10.8672 275.875C12.0391 277.297 14.0469 278.008 16.8906 278.008ZM47.5234 278.242V283.234L44.3594 283.352C41.2031 283.461 39.0469 282.914 37.8906 281.711C37.1406 280.945 36.7656 279.766 36.7656 278.172V262.445H33.2031V257.688H36.7656V250.562H43.375V257.688H47.5234V262.445H43.375V275.945C43.375 276.992 43.5078 277.648 43.7734 277.914C44.0391 278.164 44.8516 278.289 46.2109 278.289C46.4141 278.289 46.625 278.289 46.8438 278.289C47.0781 278.273 47.3047 278.258 47.5234 278.242ZM52.7734 260.219C54.5391 257.969 57.5703 256.844 61.8672 256.844C64.6641 256.844 67.1484 257.398 69.3203 258.508C71.4922 259.617 72.5781 261.711 72.5781 264.789V276.508C72.5781 277.32 72.5938 278.305 72.625 279.461C72.6719 280.336 72.8047 280.93 73.0234 281.242C73.2422 281.555 73.5703 281.812 74.0078 282.016V283H66.7422C66.5391 282.484 66.3984 282 66.3203 281.547C66.2422 281.094 66.1797 280.578 66.1328 280C65.2109 281 64.1484 281.852 62.9453 282.555C61.5078 283.383 59.8828 283.797 58.0703 283.797C55.7578 283.797 53.8438 283.141 52.3281 281.828C50.8281 280.5 50.0781 278.625 50.0781 276.203C50.0781 273.062 51.2891 270.789 53.7109 269.383C55.0391 268.617 56.9922 268.07 59.5703 267.742L61.8438 267.461C63.0781 267.305 63.9609 267.109 64.4922 266.875C65.4453 266.469 65.9219 265.836 65.9219 264.977C65.9219 263.93 65.5547 263.211 64.8203 262.82C64.1016 262.414 63.0391 262.211 61.6328 262.211C60.0547 262.211 58.9375 262.602 58.2812 263.383C57.8125 263.961 57.5 264.742 57.3438 265.727H50.8984C51.0391 263.492 51.6641 261.656 52.7734 260.219ZM57.7422 278.172C58.3672 278.688 59.1328 278.945 60.0391 278.945C61.4766 278.945 62.7969 278.523 64 277.68C65.2188 276.836 65.8516 275.297 65.8984 273.062V270.578C65.4766 270.844 65.0469 271.062 64.6094 271.234C64.1875 271.391 63.6016 271.539 62.8516 271.68L61.3516 271.961C59.9453 272.211 58.9375 272.516 58.3281 272.875C57.2969 273.484 56.7812 274.43 56.7812 275.711C56.7812 276.852 57.1016 277.672 57.7422 278.172ZM91.375 263.617C88.6875 263.617 86.8828 264.492 85.9609 266.242C85.4453 267.227 85.1875 268.742 85.1875 270.789V283H78.4609V257.453H84.8359V261.906C85.8672 260.203 86.7656 259.039 87.5312 258.414C88.7812 257.367 90.4062 256.844 92.4062 256.844C92.5312 256.844 92.6328 256.852 92.7109 256.867C92.8047 256.867 93 256.875 93.2969 256.891V263.734C92.875 263.688 92.5 263.656 92.1719 263.641C91.8438 263.625 91.5781 263.617 91.375 263.617ZM108.93 278.242V283.234L105.766 283.352C102.609 283.461 100.453 282.914 99.2969 281.711C98.5469 280.945 98.1719 279.766 98.1719 278.172V262.445H94.6094V257.688H98.1719V250.562H104.781V257.688H108.93V262.445H104.781V275.945C104.781 276.992 104.914 277.648 105.18 277.914C105.445 278.164 106.258 278.289 107.617 278.289C107.82 278.289 108.031 278.289 108.25 278.289C108.484 278.273 108.711 278.258 108.93 278.242ZM127.539 260.219C129.305 257.969 132.336 256.844 136.633 256.844C139.43 256.844 141.914 257.398 144.086 258.508C146.258 259.617 147.344 261.711 147.344 264.789V276.508C147.344 277.32 147.359 278.305 147.391 279.461C147.438 280.336 147.57 280.93 147.789 281.242C148.008 281.555 148.336 281.812 148.773 282.016V283H141.508C141.305 282.484 141.164 282 141.086 281.547C141.008 281.094 140.945 280.578 140.898 280C139.977 281 138.914 281.852 137.711 282.555C136.273 283.383 134.648 283.797 132.836 283.797C130.523 283.797 128.609 283.141 127.094 281.828C125.594 280.5 124.844 278.625 124.844 276.203C124.844 273.062 126.055 270.789 128.477 269.383C129.805 268.617 131.758 268.07 134.336 267.742L136.609 267.461C137.844 267.305 138.727 267.109 139.258 266.875C140.211 266.469 140.688 265.836 140.688 264.977C140.688 263.93 140.32 263.211 139.586 262.82C138.867 262.414 137.805 262.211 136.398 262.211C134.82 262.211 133.703 262.602 133.047 263.383C132.578 263.961 132.266 264.742 132.109 265.727H125.664C125.805 263.492 126.43 261.656 127.539 260.219ZM132.508 278.172C133.133 278.688 133.898 278.945 134.805 278.945C136.242 278.945 137.562 278.523 138.766 277.68C139.984 276.836 140.617 275.297 140.664 273.062V270.578C140.242 270.844 139.812 271.062 139.375 271.234C138.953 271.391 138.367 271.539 137.617 271.68L136.117 271.961C134.711 272.211 133.703 272.516 133.094 272.875C132.062 273.484 131.547 274.43 131.547 275.711C131.547 276.852 131.867 277.672 132.508 278.172ZM188.758 266.617H181.914C181.789 265.664 181.469 264.805 180.953 264.039C180.203 263.008 179.039 262.492 177.461 262.492C175.211 262.492 173.672 263.609 172.844 265.844C172.406 267.031 172.188 268.609 172.188 270.578C172.188 272.453 172.406 273.961 172.844 275.102C173.641 277.227 175.141 278.289 177.344 278.289C178.906 278.289 180.016 277.867 180.672 277.023C181.328 276.18 181.727 275.086 181.867 273.742H188.688C188.531 275.773 187.797 277.695 186.484 279.508C184.391 282.43 181.289 283.891 177.18 283.891C173.07 283.891 170.047 282.672 168.109 280.234C166.172 277.797 165.203 274.633 165.203 270.742C165.203 266.352 166.273 262.938 168.414 260.5C170.555 258.062 173.508 256.844 177.273 256.844C180.477 256.844 183.094 257.562 185.125 259C187.172 260.438 188.383 262.977 188.758 266.617ZM216.461 268V283H209.641V267.461C209.641 266.086 209.406 264.977 208.938 264.133C208.328 262.945 207.172 262.352 205.469 262.352C203.703 262.352 202.359 262.945 201.438 264.133C200.531 265.305 200.078 266.984 200.078 269.172V283H193.422V248.57H200.078V260.781C201.047 259.297 202.164 258.266 203.43 257.688C204.711 257.094 206.055 256.797 207.461 256.797C209.039 256.797 210.469 257.07 211.75 257.617C213.047 258.164 214.109 259 214.938 260.125C215.641 261.078 216.07 262.062 216.227 263.078C216.383 264.078 216.461 265.719 216.461 268ZM223.68 260.219C225.445 257.969 228.477 256.844 232.773 256.844C235.57 256.844 238.055 257.398 240.227 258.508C242.398 259.617 243.484 261.711 243.484 264.789V276.508C243.484 277.32 243.5 278.305 243.531 279.461C243.578 280.336 243.711 280.93 243.93 281.242C244.148 281.555 244.477 281.812 244.914 282.016V283H237.648C237.445 282.484 237.305 282 237.227 281.547C237.148 281.094 237.086 280.578 237.039 280C236.117 281 235.055 281.852 233.852 282.555C232.414 283.383 230.789 283.797 228.977 283.797C226.664 283.797 224.75 283.141 223.234 281.828C221.734 280.5 220.984 278.625 220.984 276.203C220.984 273.062 222.195 270.789 224.617 269.383C225.945 268.617 227.898 268.07 230.477 267.742L232.75 267.461C233.984 267.305 234.867 267.109 235.398 266.875C236.352 266.469 236.828 265.836 236.828 264.977C236.828 263.93 236.461 263.211 235.727 262.82C235.008 262.414 233.945 262.211 232.539 262.211C230.961 262.211 229.844 262.602 229.188 263.383C228.719 263.961 228.406 264.742 228.25 265.727H221.805C221.945 263.492 222.57 261.656 223.68 260.219ZM228.648 278.172C229.273 278.688 230.039 278.945 230.945 278.945C232.383 278.945 233.703 278.523 234.906 277.68C236.125 276.836 236.758 275.297 236.805 273.062V270.578C236.383 270.844 235.953 271.062 235.516 271.234C235.094 271.391 234.508 271.539 233.758 271.68L232.258 271.961C230.852 272.211 229.844 272.516 229.234 272.875C228.203 273.484 227.688 274.43 227.688 275.711C227.688 276.852 228.008 277.672 228.648 278.172ZM261.133 278.242V283.234L257.969 283.352C254.812 283.461 252.656 282.914 251.5 281.711C250.75 280.945 250.375 279.766 250.375 278.172V262.445H246.812V257.688H250.375V250.562H256.984V257.688H261.133V262.445H256.984V275.945C256.984 276.992 257.117 277.648 257.383 277.914C257.648 278.164 258.461 278.289 259.82 278.289C260.023 278.289 260.234 278.289 260.453 278.289C260.688 278.273 260.914 278.258 261.133 278.242Z" fill="#6B6B6B" fill-opacity="0.3"/>
</svg>
