<svg width="34" height="34" viewBox="0 0 34 34" fill="none" xmlns="http://www.w3.org/2000/svg">
<path d="M16.9999 20.1357C17.3255 20.1357 17.6378 20.0064 17.8681 19.7761C18.0983 19.5459 18.2277 19.2336 18.2277 18.908V13.2224C18.2277 12.8968 18.0983 12.5845 17.8681 12.3542C17.6378 12.124 17.3255 11.9946 16.9999 11.9946C16.6743 11.9946 16.362 12.124 16.1317 12.3542C15.9015 12.5845 15.7721 12.8968 15.7721 13.2224V18.8891C15.7696 19.0519 15.7995 19.2136 15.8601 19.3647C15.9207 19.5159 16.0107 19.6535 16.125 19.7695C16.2392 19.8855 16.3754 19.9776 16.5256 20.0405C16.6758 20.1034 16.8371 20.1358 16.9999 20.1357Z" fill="#C90000"/>
<path d="M16.9528 24.3382C17.7352 24.3382 18.3695 23.704 18.3695 22.9215C18.3695 22.1391 17.7352 21.5049 16.9528 21.5049C16.1704 21.5049 15.5361 22.1391 15.5361 22.9215C15.5361 23.704 16.1704 24.3382 16.9528 24.3382Z" fill="#C90000"/>
<path d="M28.645 24.1209L19.4461 7.17759C19.2026 6.73013 18.8429 6.3566 18.4049 6.09635C17.967 5.83609 17.4669 5.69873 16.9575 5.69873C16.448 5.69873 15.948 5.83609 15.5101 6.09635C15.0721 6.3566 14.7124 6.73013 14.4689 7.17759L5.26054 24.1209C5.01953 24.5535 4.89611 25.0418 4.90259 25.5369C4.90907 26.0321 5.04522 26.517 5.29747 26.9431C5.54973 27.3693 5.90928 27.7219 6.34027 27.9658C6.77127 28.2097 7.25867 28.3363 7.75388 28.3331H26.1517C26.6428 28.3336 27.1256 28.2064 27.5528 27.9639C27.9799 27.7215 28.3367 27.3722 28.5882 26.9503C28.8396 26.5284 28.977 26.0483 28.987 25.5573C28.997 25.0662 28.8791 24.581 28.645 24.1493V24.1209ZM26.9639 25.9531C26.8803 26.0941 26.7614 26.2109 26.619 26.2921C26.4766 26.3732 26.3156 26.4159 26.1517 26.4159H7.75388C7.58971 26.4164 7.42826 26.374 7.28546 26.293C7.14265 26.2121 7.02341 26.0953 6.93951 25.9542C6.85561 25.8131 6.80994 25.6525 6.807 25.4884C6.80407 25.3242 6.84397 25.1622 6.92277 25.0181L16.1217 8.07481C16.2026 7.92488 16.3226 7.79963 16.4689 7.71234C16.6152 7.62505 16.7824 7.57896 16.9528 7.57896C17.1231 7.57896 17.2903 7.62505 17.4367 7.71234C17.583 7.79963 17.703 7.92488 17.7839 8.07481L26.9828 25.0181C27.0611 25.1622 27.1005 25.3242 27.0972 25.4881C27.0939 25.6521 27.0479 25.8123 26.9639 25.9531Z" fill="#C90000"/>
</svg>
