<svg width="16" height="20" viewBox="0 0 16 20" fill="none" xmlns="http://www.w3.org/2000/svg">
<path d="M11.6147 4.77881C11.7938 4.77881 12.099 4.80729 12.5303 4.86426C12.9616 4.92122 13.4336 5.08398 13.9463 5.35254C14.4671 5.61296 14.9391 6.04834 15.3623 6.65869C15.3379 6.68311 15.2199 6.77262 15.0083 6.92725C14.7967 7.07373 14.5607 7.29346 14.3003 7.58643C14.0399 7.87126 13.812 8.23747 13.6167 8.68506C13.4214 9.12451 13.3237 9.64941 13.3237 10.2598C13.3237 10.9596 13.4458 11.5537 13.6899 12.042C13.9422 12.5303 14.2311 12.925 14.5566 13.2261C14.8903 13.519 15.1833 13.7347 15.4355 13.873C15.696 14.0114 15.8343 14.0846 15.8506 14.0928C15.8424 14.1253 15.7367 14.4142 15.5332 14.9595C15.3379 15.5047 15.0124 16.111 14.5566 16.7783C14.1579 17.3561 13.7266 17.8892 13.2627 18.3774C12.807 18.8657 12.2576 19.1099 11.6147 19.1099C11.1834 19.1099 10.8294 19.0488 10.5527 18.9268C10.276 18.7965 9.99121 18.6704 9.69824 18.5483C9.40527 18.4181 9.01058 18.353 8.51416 18.353C8.03402 18.353 7.63118 18.4181 7.30566 18.5483C6.98828 18.6785 6.68311 18.8088 6.39014 18.939C6.10531 19.0692 5.76758 19.1343 5.37695 19.1343C4.78288 19.1343 4.26204 18.8983 3.81445 18.4263C3.36686 17.9543 2.90706 17.3887 2.43506 16.7295C1.88981 15.9482 1.42188 14.9961 1.03125 13.873C0.648763 12.7419 0.45752 11.6025 0.45752 10.4551C0.45752 9.22624 0.689453 8.19678 1.15332 7.3667C1.61719 6.52848 2.21126 5.89779 2.93555 5.47461C3.66797 5.04329 4.4248 4.82764 5.20605 4.82764C5.62109 4.82764 6.01172 4.89681 6.37793 5.03516C6.74414 5.16536 7.08594 5.29964 7.40332 5.43799C7.72884 5.57633 8.02181 5.64551 8.28223 5.64551C8.53451 5.64551 8.82747 5.57227 9.16113 5.42578C9.49479 5.2793 9.86914 5.13688 10.2842 4.99854C10.6992 4.85205 11.1427 4.77881 11.6147 4.77881ZM10.9434 3.22852C10.626 3.611 10.2272 3.93245 9.74707 4.19287C9.26693 4.44515 8.8112 4.57129 8.37988 4.57129C8.29036 4.57129 8.20492 4.56315 8.12354 4.54688C8.1154 4.52246 8.10726 4.4777 8.09912 4.4126C8.09098 4.34749 8.08691 4.27832 8.08691 4.20508C8.08691 3.7168 8.19271 3.24479 8.4043 2.78906C8.61589 2.3252 8.85596 1.94271 9.12451 1.6416C9.46631 1.2347 9.89762 0.896973 10.4185 0.628418C10.9393 0.359863 11.4357 0.217448 11.9077 0.201172C11.9321 0.306966 11.9443 0.433105 11.9443 0.57959C11.9443 1.06787 11.8507 1.54395 11.6636 2.00781C11.4764 2.46354 11.2363 2.87044 10.9434 3.22852Z" fill="black"/>
</svg>
