<svg width="32" height="33" viewBox="0 0 32 33" fill="none" xmlns="http://www.w3.org/2000/svg">
<g clip-path="url(#clip0_134_302)">
<path d="M23.625 20.2292C23.1111 21.9097 22.1528 23.2639 20.75 24.2917C19.3472 25.3194 17.7639 25.8333 16 25.8333C14.2361 25.8333 12.6528 25.3194 11.25 24.2917C9.84722 23.2639 8.88889 21.9097 8.375 20.2292C8.26389 19.8819 8.29167 19.5451 8.45833 19.2188C8.625 18.8924 8.88889 18.6736 9.25 18.5625C9.59722 18.4514 9.93403 18.4792 10.2604 18.6458C10.5868 18.8125 10.8056 19.0764 10.9167 19.4375C11.2639 20.5486 11.9062 21.4479 12.8438 22.1354C13.7812 22.8229 14.8333 23.1667 16 23.1667C17.1667 23.1667 18.2188 22.8229 19.1562 22.1354C20.0938 21.4479 20.7361 20.5486 21.0833 19.4375C21.1944 19.0764 21.4167 18.8125 21.75 18.6458C22.0833 18.4792 22.4236 18.4514 22.7708 18.5625C23.1181 18.6736 23.375 18.8924 23.5417 19.2188C23.7083 19.5451 23.7361 19.8819 23.625 20.2292ZM13.3333 11.1667C13.3333 11.9028 13.0729 12.5312 12.5521 13.0521C12.0312 13.5729 11.4028 13.8333 10.6667 13.8333C9.93056 13.8333 9.30208 13.5729 8.78125 13.0521C8.26042 12.5312 8 11.9028 8 11.1667C8 10.4306 8.26042 9.80208 8.78125 9.28125C9.30208 8.76042 9.93056 8.5 10.6667 8.5C11.4028 8.5 12.0312 8.76042 12.5521 9.28125C13.0729 9.80208 13.3333 10.4306 13.3333 11.1667ZM24 11.1667C24 11.9028 23.7396 12.5312 23.2188 13.0521C22.6979 13.5729 22.0694 13.8333 21.3333 13.8333C20.5972 13.8333 19.9688 13.5729 19.4479 13.0521C18.9271 12.5312 18.6667 11.9028 18.6667 11.1667C18.6667 10.4306 18.9271 9.80208 19.4479 9.28125C19.9688 8.76042 20.5972 8.5 21.3333 8.5C22.0694 8.5 22.6979 8.76042 23.2188 9.28125C23.7396 9.80208 24 10.4306 24 11.1667ZM29.3333 16.5C29.3333 14.6944 28.9792 12.9688 28.2708 11.3229C27.5625 9.67708 26.6146 8.26042 25.4271 7.07292C24.2396 5.88542 22.8229 4.9375 21.1771 4.22917C19.5312 3.52083 17.8056 3.16667 16 3.16667C14.1944 3.16667 12.4688 3.52083 10.8229 4.22917C9.17708 4.9375 7.76042 5.88542 6.57292 7.07292C5.38542 8.26042 4.4375 9.67708 3.72917 11.3229C3.02083 12.9688 2.66667 14.6944 2.66667 16.5C2.66667 18.3056 3.02083 20.0312 3.72917 21.6771C4.4375 23.3229 5.38542 24.7396 6.57292 25.9271C7.76042 27.1146 9.17708 28.0625 10.8229 28.7708C12.4688 29.4792 14.1944 29.8333 16 29.8333C17.8056 29.8333 19.5312 29.4792 21.1771 28.7708C22.8229 28.0625 24.2396 27.1146 25.4271 25.9271C26.6146 24.7396 27.5625 23.3229 28.2708 21.6771C28.9792 20.0312 29.3333 18.3056 29.3333 16.5ZM32 16.5C32 19.4028 31.2847 22.0799 29.8542 24.5312C28.4236 26.9826 26.4826 28.9236 24.0312 30.3542C21.5799 31.7847 18.9028 32.5 16 32.5C13.0972 32.5 10.4201 31.7847 7.96875 30.3542C5.51736 28.9236 3.57639 26.9826 2.14583 24.5312C0.715278 22.0799 0 19.4028 0 16.5C0 13.5972 0.715278 10.9201 2.14583 8.46875C3.57639 6.01736 5.51736 4.07639 7.96875 2.64583C10.4201 1.21528 13.0972 0.5 16 0.5C18.9028 0.5 21.5799 1.21528 24.0312 2.64583C26.4826 4.07639 28.4236 6.01736 29.8542 8.46875C31.2847 10.9201 32 13.5972 32 16.5Z" fill="#007AAB"/>
</g>
<defs>
<clipPath id="clip0_134_302">
<rect width="32" height="32" fill="white" transform="translate(0 0.5)"/>
</clipPath>
</defs>
</svg>
