<svg width="25" height="24" viewBox="0 0 25 24" fill="none" xmlns="http://www.w3.org/2000/svg">
<g clip-path="url(#clip0_225_117)">
<path d="M16.685 19.368L14.264 16.9455C13.3278 17.2802 12.3157 17.3422 11.3456 17.1243C10.3755 16.9063 9.48729 16.4173 8.78423 15.7143C8.08117 15.0112 7.59221 14.123 7.37424 13.1529C7.15628 12.1828 7.21827 11.1707 7.553 10.2345L4.463 7.1445C1.907 9.417 0.5 12 0.5 12C0.5 12 5 20.25 12.5 20.25C13.9406 20.245 15.3649 19.9448 16.685 19.368ZM8.315 4.632C9.63508 4.05514 11.0594 3.75496 12.5 3.75C20 3.75 24.5 12 24.5 12C24.5 12 23.0915 14.5815 20.5385 16.857L17.4455 13.764C17.7802 12.8278 17.8422 11.8157 17.6243 10.8456C17.4063 9.87554 16.9173 8.98729 16.2143 8.28423C15.5112 7.58117 14.623 7.09221 13.6529 6.87424C12.6828 6.65628 11.6707 6.71827 10.7345 7.053L8.315 4.632Z" fill="#838383"/>
<path d="M8.78774 11.4688C8.70523 12.0452 8.75811 12.633 8.94218 13.1855C9.12626 13.7379 9.43648 14.24 9.84826 14.6517C10.26 15.0635 10.7621 15.3737 11.3145 15.5578C11.867 15.7419 12.4548 15.7948 13.0312 15.7123L8.78774 11.4688ZM16.2127 12.5308L11.9692 8.28575C12.5457 8.20324 13.1335 8.25612 13.6859 8.44019C14.2384 8.62427 14.7404 8.93449 15.1522 9.34627C15.564 9.75804 15.8742 10.2601 16.0583 10.8125C16.2424 11.365 16.2953 11.9528 16.2127 12.5292V12.5308ZM20.9692 21.5308L2.96924 3.53075L4.03124 2.46875L22.0312 20.4688L20.9692 21.5308Z" fill="#838383"/>
</g>
<defs>
<clipPath id="clip0_225_117">
<rect width="24" height="24" fill="white" transform="translate(0.5)"/>
</clipPath>
</defs>
</svg>
