<svg width="24" height="24" viewBox="0 0 24 24" fill="none" xmlns="http://www.w3.org/2000/svg">
<path fill-rule="evenodd" clip-rule="evenodd" d="M23.5015 12.2614C23.5015 11.446 23.4268 10.6619 23.2881 9.90916H12.2362V14.3576H18.5516C18.2795 15.7951 17.4528 17.013 16.2099 17.8285V20.7139H20.0024C22.2213 18.7119 23.5015 15.7637 23.5015 12.2614Z" fill="#4285F4"/>
<path fill-rule="evenodd" clip-rule="evenodd" d="M12.2362 23.5C15.4045 23.5 18.0608 22.4703 20.0024 20.7139L16.2099 17.8285C15.1592 18.5185 13.815 18.9261 12.2362 18.9261C9.17982 18.9261 6.59285 16.9032 5.67007 14.185H1.74962V17.1645C3.68051 20.923 7.64897 23.5 12.2362 23.5Z" fill="#34A853"/>
<path fill-rule="evenodd" clip-rule="evenodd" d="M5.67007 14.185C5.43538 13.495 5.30202 12.758 5.30202 12.0001C5.30202 11.2421 5.43537 10.5051 5.67007 9.81506V6.83552H1.74961C0.954851 8.38802 0.501465 10.1444 0.501465 12.0001C0.501465 13.8557 0.954856 15.612 1.74962 17.1645L5.67007 14.185Z" fill="#FBBC05"/>
<path fill-rule="evenodd" clip-rule="evenodd" d="M12.2362 5.07387C13.959 5.07387 15.5059 5.65409 16.722 6.79364L20.0878 3.49523C18.0555 1.63955 15.3992 0.5 12.2362 0.5C7.64897 0.5 3.6805 3.07711 1.74961 6.83552L5.67007 9.81506C6.59284 7.09688 9.17982 5.07387 12.2362 5.07387Z" fill="#EA4335"/>
</svg>
