<svg width="32" height="33" viewBox="0 0 32 33" fill="none" xmlns="http://www.w3.org/2000/svg">
<path d="M29.2501 7.25985C28.6927 6.70049 28.0303 6.25667 27.301 5.95384C26.5717 5.651 25.7898 5.49512 25.0001 5.49512C24.2104 5.49512 23.4285 5.651 22.6992 5.95384C21.9699 6.25667 21.3075 6.70049 20.7501 7.25985L22.1701 8.67985C22.5424 8.30755 22.9844 8.01223 23.4708 7.81074C23.9572 7.60926 24.4786 7.50555 25.0051 7.50555C25.5316 7.50555 26.0529 7.60926 26.5394 7.81074C27.0258 8.01223 27.4678 8.30755 27.8401 8.67985C28.2124 9.05215 28.5077 9.49413 28.7092 9.98056C28.9107 10.467 29.0144 10.9883 29.0144 11.5148C29.0144 12.0414 28.9107 12.5627 28.7092 13.0491C28.5077 13.5356 28.2124 13.9776 27.8401 14.3498L19.8401 22.3498C19.0895 23.1017 18.071 23.5247 17.0086 23.5256C15.9462 23.5265 14.927 23.1054 14.1751 22.3548C13.4232 21.6043 13.0003 20.5858 12.9993 19.5234C12.9984 18.461 13.4195 17.4417 14.1701 16.6898L15.5801 15.2698L14.1701 13.8498L12.7501 15.2698C12.1907 15.8273 11.7469 16.4896 11.4441 17.2189C11.1412 17.9482 10.9854 18.7302 10.9854 19.5198C10.9854 20.3095 11.1412 21.0914 11.4441 21.8208C11.7469 22.5501 12.1907 23.2124 12.7501 23.7698C13.8816 24.8868 15.4102 25.5091 17.0001 25.4998C17.7928 25.5031 18.5783 25.3492 19.3112 25.0472C20.0441 24.7451 20.7099 24.3007 21.2701 23.7398L29.2701 15.7398C30.391 14.6122 31.0186 13.0857 31.0148 11.4957C31.0111 9.9057 30.3763 8.3822 29.2501 7.25985Z" fill="#007AAB"/>
<path d="M4.18997 25.3198C3.81656 24.9481 3.52026 24.5064 3.31807 24.0199C3.11589 23.5333 3.01181 23.0117 3.01181 22.4848C3.01181 21.958 3.11589 21.4363 3.31807 20.9498C3.52026 20.4633 3.81656 20.0215 4.18997 19.6498L12.19 11.6498C12.5616 11.2764 13.0034 10.9801 13.4899 10.7779C13.9765 10.5757 14.4981 10.4717 15.025 10.4717C15.5518 10.4717 16.0735 10.5757 16.56 10.7779C17.0465 10.9801 17.4883 11.2764 17.86 11.6498C18.231 12.0244 18.5231 12.4697 18.7189 12.9592C18.9147 13.4488 19.0103 13.9727 19 14.4998C19.003 15.0286 18.9012 15.5528 18.7004 16.042C18.4995 16.5312 18.2037 16.9757 17.83 17.3498L15.71 19.4998L17.13 20.9198L19.25 18.7998C20.3785 17.6713 21.0124 16.1408 21.0124 14.5448C21.0124 12.9489 20.3785 11.4183 19.25 10.2898C18.1215 9.16133 16.5909 8.52734 14.995 8.52734C13.399 8.52734 11.8685 9.16133 10.74 10.2898L2.73997 18.2898C2.17911 18.8474 1.73401 19.5104 1.43029 20.2406C1.12657 20.9709 0.970215 21.7539 0.970215 22.5448C0.970215 23.3357 1.12657 24.1188 1.43029 24.849C1.73401 25.5792 2.17911 26.2422 2.73997 26.7998C3.87879 27.9083 5.41087 28.5197 6.99997 28.4998C8.60307 28.5014 10.1417 27.8687 11.28 26.7398L9.85997 25.3198C9.4883 25.6932 9.04652 25.9895 8.56 26.1917C8.07349 26.3939 7.55182 26.498 7.02497 26.498C6.49812 26.498 5.97645 26.3939 5.48994 26.1917C5.00342 25.9895 4.56164 25.6932 4.18997 25.3198Z" fill="#007AAB"/>
</svg>
