<svg width="22" height="23" viewBox="0 0 22 23" fill="none" xmlns="http://www.w3.org/2000/svg">
<path fill-rule="evenodd" clip-rule="evenodd" d="M14.9645 14.1576L19.8961 19.0893C20.0695 19.2627 20.1668 19.4979 20.1667 19.7432C20.1666 19.9884 20.0691 20.2235 19.8957 20.3969C19.7222 20.5702 19.487 20.6676 19.2418 20.6675C18.9965 20.6674 18.7614 20.5699 18.588 20.3964L13.6564 15.4648C12.1821 16.6066 10.3282 17.144 8.47182 16.9675C6.61543 16.791 4.896 15.9139 3.66331 14.5147C2.43062 13.1155 1.77728 11.2993 1.83618 9.43542C1.89509 7.5716 2.66182 5.80021 3.98041 4.48163C5.29899 3.16304 7.07037 2.39631 8.9342 2.3374C10.798 2.2785 12.6143 2.93184 14.0135 4.16453C15.4127 5.39722 16.2898 7.11665 16.4663 8.97304C16.6428 10.8294 16.1054 12.6833 14.9635 14.1576H14.9645ZM9.16653 15.1668C10.6252 15.1668 12.0242 14.5874 13.0556 13.5559C14.0871 12.5245 14.6665 11.1255 14.6665 9.66684C14.6665 8.20815 14.0871 6.8092 13.0556 5.77775C12.0242 4.7463 10.6252 4.16684 9.16653 4.16684C7.70784 4.16684 6.3089 4.7463 5.27745 5.77775C4.246 6.8092 3.66654 8.20815 3.66654 9.66684C3.66654 11.1255 4.246 12.5245 5.27745 13.5559C6.3089 14.5874 7.70784 15.1668 9.16653 15.1668Z" fill="#6B6B6B"/>
</svg>
